<svg xmlns="http://www.w3.org/2000/svg" width="64" height="64" viewBox="0 0 64 64">
  <g id="Group_427" data-name="Group 427" transform="translate(-34 -40)">
    <circle id="Ellipse_162" data-name="Ellipse 162" cx="32" cy="32" r="32" transform="translate(34 40)" fill="#f7eceb"/>
    <path id="Path_234" data-name="Path 234" d="M18.65,2A16.667,16.667,0,1,0,35.333,18.667,16.659,16.659,0,0,0,18.65,2Zm.017,30A13.333,13.333,0,1,1,32,18.667,13.33,13.33,0,0,1,18.667,32ZM24.5,17A2.5,2.5,0,1,0,22,14.5,2.5,2.5,0,0,0,24.5,17ZM12.833,17a2.5,2.5,0,1,0-2.5-2.5A2.5,2.5,0,0,0,12.833,17Zm5.833,10.833A9.16,9.16,0,0,0,27.183,22H10.15A9.16,9.16,0,0,0,18.667,27.833Z" transform="translate(47 53)" fill="#ebd0ce"/>
  </g>
</svg>
