<svg xmlns="http://www.w3.org/2000/svg" width="16" height="15.901" viewBox="0 0 16 15.901">
  <path id="Path_232" data-name="Path 232" d="M11.938,20.763a2.408,2.408,0,0,1,1.818-3.975h.06a4.843,4.843,0,0,1-.739-3.156,6.67,6.67,0,0,1,.759-2.357c.36-.679.759-1.2.719-1.179a4.78,4.78,0,0,0,.4.619,5.028,5.028,0,0,0,1.7,1.139c1.558.8,4.135,1.378,4.954,2.2a2.236,2.236,0,0,1,.479,2.757h.2a2.392,2.392,0,0,1,1.8,3.975A2.637,2.637,0,0,1,26,23.319h0A2.677,2.677,0,0,1,23.323,26H12.677A2.677,2.677,0,0,1,10,23.319h0A2.747,2.747,0,0,1,11.938,20.763Z" transform="translate(-10 -10.095)" fill="#ebd0ce"/>
</svg>
