<svg xmlns="http://www.w3.org/2000/svg" width="32" height="32" viewBox="0 0 32 32">
  <g id="Group_425" data-name="Group 425" transform="translate(-356 -305)">
    <circle id="Ellipse_41" data-name="Ellipse 41" cx="16" cy="16" r="16" transform="translate(356 305)" fill="#f7eceb"/>
    <path id="Path_84" data-name="Path 84" d="M5.3,11.43.212,6.459a.688.688,0,0,1,0-.995L1.241,4.47a.747.747,0,0,1,1.028,0L5.819,7.952,13.73.206a.747.747,0,0,1,1.028,0l1.028.995a.686.686,0,0,1,0,.993L6.332,11.433A.747.747,0,0,1,5.3,11.43Z" transform="translate(364 314.999)" fill="#ebd0ce"/>
  </g>
</svg>
