<svg xmlns="http://www.w3.org/2000/svg" width="49.385" height="46" viewBox="0 0 49.385 46">
  <path id="Icon_ionic-ios-star" data-name="Icon ionic-ios-star" d="M47.837,18.606H32.278L27.55,4.5a1.713,1.713,0,0,0-3.215,0l-4.728,14.11H3.942A1.7,1.7,0,0,0,2.25,20.3a1.244,1.244,0,0,0,.032.286,1.626,1.626,0,0,0,.709,1.2L15.778,30.79,10.87,45.059a1.7,1.7,0,0,0,.582,1.9,1.637,1.637,0,0,0,.952.412,2.074,2.074,0,0,0,1.058-.381l12.481-8.9,12.481,8.9a1.982,1.982,0,0,0,1.058.381,1.52,1.52,0,0,0,.941-.412,1.676,1.676,0,0,0,.582-1.9L36.1,30.79l12.682-9.1.307-.264a1.774,1.774,0,0,0,.55-1.132A1.791,1.791,0,0,0,47.837,18.606Z" transform="translate(-1.25 -2.375)" fill="none" stroke="#4b00e0" stroke-width="2"/>
</svg>
